{"title":"Man of Tai Chi 2013 R6 DVDSCR AVC MP3-bRaVo","uid":8665540,"size":778192200,"categoryP":"video","categoryS":"movies","magnet":"?xt=urn:btih:a06a85f5c800b689748ccf882462621050bd9658&amp;dn=Man+of+Tai+Chi+2013+R6+DVDSCR+AVC+MP3-bRaVo&amp;tr=udp%3A%2F%2Ftracker.openbittorrent.com%3A80&amp;tr=udp%3A%2F%2Fopen.demonii.com%3A1337&amp;tr=udp%3A%2F%2Ftracker.coppersurfer.tk%3A6969&amp;tr=udp%3A%2F%2Fexodus.desync.com%3A6969","seeders":7,"leechers":1,"uploader":"xxxlavalxxx","files":-1,"time":1373400261,"description":"\n &lt;a href=&quot;\nhttp://www.imdb.com/title/tt2016940/&quot; rel=&quot;nofollow&quot; target=&quot;_NEW&quot;&gt;\nhttp://www.imdb.com/title/tt2016940/&lt;/a&gt;\n\n\n\nA young martial artist's unparalleled Tai Chi skills land him in a highly lucrative underworld fight club. \n\n\n\nDirector:\n Keanu Reeves \n\nWriter:\n Michael G. Cooney \n\nStars:\n Keanu Reeves, Iko Uwais, Tiger Hu Chen\n\nGenres:\n  Action \n\nCountry:\n USA | China | Hong Kong \n\nLanguage:\n Cantonese | English | Mandarin \n\n\n\n\n\nFormat : AVI\n Format/Info : Audio Video Interleave\n File size : 742 MiB\n Duration : 1h 36mn\n Overall bit rate mode : Variable\n Overall bit rate : 1 073 Kbps\n Writing application : Lavf51.12.1\n\n Video\n ID : 0\n Format : AVC\n Format/Info : Advanced Video Codec\n Format profile : &lt;a class=&quot;__cf_email__&quot; href=&quot;/cdn-cgi/l/email-protection&quot; data-cfemail=&quot;1d5f7c6e78717473785d512e332d&quot;&gt;[email&amp;#160;protected]&lt;/a&gt;&lt;script cf-hash='f9e31' type=&quot;text/javascript&quot;&gt;\n/* &lt;![CDATA[ */!function(){try{var t=&quot;currentScript&quot;in document?document.currentScript:function(){for(var t=document.getElementsByTagName(&quot;script&quot;),e=t.length;e--;)if(t[e].getAttribute(&quot;cf-hash&quot;))return t[e]}();if(t&amp;&amp;t.previousSibling){var e,r,n,i,c=t.previousSibling,a=c.getAttribute(&quot;data-cfemail&quot;);if(a){for(e=&quot;&quot;,r=parseInt(a.substr(0,2),16),n=2;a.length-n;n+=2)i=parseInt(a.substr(n,2),16)^r,e+=String.fromCharCode(i);e=document.createTextNode(e),c.parentNode.replaceChild(e,c)}}}catch(u){}}();/* ]]&gt; */&lt;/script&gt;\n Format settings, CABAC : No\n Format settings, ReFrames : 1 frame\n Format settings, GOP : M=1, N=12\n Codec ID : H264\n Duration : 1h 36mn\n Bit rate mode : Variable\n Bit rate : 741 Kbps\n Maximum bit rate : 1 111 Kbps\n Width : 720 pixels\n Height : 408 pixels\n Display aspect ratio : 16:9\n Frame rate : 23.976 fps\n Original frame rate : 24.000 fps\n Color space : YUV\n Chroma subsampling : 4:2:0\n Bit depth : 8 bits\n Scan type : Progressive\n Bits/(Pixel*Frame) : 0.105\n Stream size : 512 MiB (69%)\n\n Audio\n ID : 1\n Format : MPEG Audio\n Format version : Version 1\n Format profile : Layer 3\n Mode : Joint stereo\n Mode extension : MS Stereo\n Codec ID : 55\n Codec ID/Hint : MP3\n Duration : 1h 36mn\n Bit rate mode : Constant\n Bit rate : 320 Kbps\n Channel(s) : 2 channels\n Sampling rate : 44.1 KHz\n Compression mode : Lossy\n Stream size : 221 MiB (30%)\n Alignment : Aligned on interleaves\n Interleave, duration : 26 ms (0.63 video frame)\n Interleave, preload duration : 26 ms\n Writing library : LAME3.97\n\n\n IMDb: &lt;a href=&quot; http://www.imdb.com/title/tt2016940/&quot; rel=&quot;nofollow&quot; target=&quot;_NEW&quot;&gt; http://www.imdb.com/title/tt2016940/&lt;/a&gt;\n\n\nLanguage: Cantonese, English, Mandarin\n Sub: HC Chinese &amp; English\n\n Encoder's note:\n Release is labeled DVDSCR by the RG, but looks more like a TS to me,\n nonetheless.. watchable... or wait for a better version =) Enjoy!\n\n\n\n\n\n\n\n\n    &lt;a href=&quot;\thttp://addpix.net/viewer.php?file=69830539020535578732.jpg&quot; rel=&quot;nofollow&quot; target=&quot;_NEW&quot;&gt;\thttp://addpix.net/viewer.php?file=69830539020535578732.jpg&lt;/a&gt;\n    &lt;a href=&quot;\thttp://addpix.net/viewer.php?file=98837430038271435122.jpg&quot; rel=&quot;nofollow&quot; target=&quot;_NEW&quot;&gt;\thttp://addpix.net/viewer.php?file=98837430038271435122.jpg&lt;/a&gt;\n    &lt;a href=&quot;\thttp://addpix.net/viewer.php?file=41524912990460357855.jpg&quot; rel=&quot;nofollow&quot; target=&quot;_NEW&quot;&gt;\thttp://addpix.net/viewer.php?file=41524912990460357855.jpg&lt;/a&gt;\n    &lt;a href=&quot;\thttp://addpix.net/viewer.php?file=08050329746526379477.jpg&quot; rel=&quot;nofollow&quot; target=&quot;_NEW&quot;&gt;\thttp://addpix.net/viewer.php?file=08050329746526379477.jpg&lt;/a&gt;","torrent":{"xt":"urn:btih:a06a85f5c800b689748ccf882462621050bd9658","amp;dn":"Man+of+Tai+Chi+2013+R6+DVDSCR+AVC+MP3-bRaVo","amp;tr":["udp%3A%2F%2Ftracker.openbittorrent.com%3A80","udp%3A%2F%2Fopen.demonii.com%3A1337","udp%3A%2F%2Ftracker.coppersurfer.tk%3A6969","udp%3A%2F%2Fexodus.desync.com%3A6969"],"infoHash":"a06a85f5c800b689748ccf882462621050bd9658","infoHashBuffer":{"type":"Buffer","data":[160,106,133,245,200,0,182,137,116,140,207,136,36,98,98,16,80,189,150,88]},"announce":[],"urlList":[]}}